<?xml version="1.0" encoding="utf-8"?>
<!-- Generator: Adobe Illustrator 16.0.0, SVG Export Plug-In . SVG Version: 6.00 Build 0)  -->
<!DOCTYPE svg PUBLIC "-//W3C//DTD SVG 1.1//EN" "http://www.w3.org/Graphics/SVG/1.1/DTD/svg11.dtd">
<svg version="1.1" id="Layer_1" xmlns="http://www.w3.org/2000/svg" xmlns:xlink="http://www.w3.org/1999/xlink" x="0px" y="0px"
	 width="490px" height="140px" viewBox="62.5 325.5 490 140" enable-background="new 62.5 325.5 490 140" xml:space="preserve">
<g id="c9b117c5-1c43-4b16-80b1-ba43951104b2" transform="matrix(3.10469388961792,0,0,3.10469388961792,110.26061311744341,121.3747223223345)">
	<path fill="#321E0F" d="M54.05,93.8c-0.102-2.509-1.265-4.08-3.264-4.672c2.142-0.795,3.427-2.631,3.427-5.08
		c0-3.427-2.448-5.61-6.304-5.61h-8.894v19.768h3.121v-7.691h5.712c1.877,0,3.019,1.469,3.08,3.672
		c0.02,1.612,0.122,3.325,0.265,4.019h3.244C54.214,97.492,54.091,95.636,54.05,93.8z M47.583,88.006h-5.447v-6.793h5.447
		c2.122,0,3.427,1.285,3.427,3.366C51.011,86.66,49.705,88.006,47.583,88.006z M71.615,91.209c-0.041-4.264-3.142-7.303-7.487-7.303
		c-4.345,0-7.507,3.04-7.507,7.283c0,4.223,3.162,7.283,7.507,7.283c3.447,0,6.446-2.244,7.242-5.345h-2.958
		c-0.551,1.673-2.264,2.938-4.264,2.938c-2.428,0-4.284-1.632-4.651-3.978h12.016C71.574,91.8,71.615,91.495,71.615,91.209z
		 M64.148,86.293c2.325,0,4.182,1.469,4.651,3.549h-9.221C60.089,87.72,61.864,86.293,64.148,86.293z M81.121,78.439h-6.487v19.768
		h6.487c5.997,0,10.139-4.06,10.139-9.914C91.26,82.498,87.119,78.439,81.121,78.439z M81.08,95.431h-3.325V81.213h3.325
		c4.141,0,6.997,2.856,6.997,7.059C88.078,92.514,85.222,95.431,81.08,95.431z M105.316,84.15v2.04
		c-1.245-1.428-3.04-2.285-5.12-2.285c-3.978,0-6.875,3.04-6.875,7.283c0,4.223,2.897,7.283,6.875,7.283
		c2.081,0,3.876-0.857,5.12-2.285v2.02h2.897V84.15H105.316z M100.787,95.921c-2.591,0-4.468-1.979-4.468-4.733
		c0-2.754,1.877-4.753,4.468-4.753c2.631,0,4.529,1.999,4.529,4.753C105.316,93.942,103.418,95.921,100.787,95.921z M119.269,84.15
		h-3.162v-3.631h-2.938v3.631h-2.611v2.468h2.611v11.587h2.938V86.619h3.162V84.15z M132.407,84.15v2.04
		c-1.224-1.428-3.019-2.285-5.1-2.285c-3.978,0-6.895,3.04-6.895,7.283c0,4.223,2.917,7.283,6.895,7.283
		c2.081,0,3.876-0.857,5.1-2.285v2.02h2.917V84.15H132.407z M127.898,95.921c-2.591,0-4.488-1.979-4.488-4.733
		c0-2.754,1.897-4.753,4.488-4.753c2.631,0,4.508,1.999,4.508,4.753C132.407,93.942,130.53,95.921,127.898,95.921z"/>
</g>
<g id="_x33_08c57a6-f907-4851-a43a-9d62a551e678" transform="matrix(3.048809289932251,0,0,3.048809289932251,35.15239299059522,111.88988280157399)">
	<path fill="#FD6C10" d="M44.978,103.877l-1.448-1.428l9.262-9.262l-9.262-9.262l1.448-1.428l10.69,10.69L44.978,103.877
		 M25.924,103.877l-10.69-10.69l10.69-10.69l1.448,1.428l-9.262,9.262l9.262,9.262L25.924,103.877 M37.96,77.887H40l-7.058,30.6
		h-2.04L37.96,77.887z"/>
</g>
</svg>
