<svg xml:space="preserve" xmlns:xlink="http://www.w3.org/1999/xlink" xmlns="http://www.w3.org/2000/svg" version="1.1" viewBox="4.208808064516129 43.330939199999996 156.92841497695852 62.58913439999999" style="max-height: 500px" width="156.92841497695852" height="62.58913439999999">
  <defs>
    <clipPath id="path0">
      <path clip-rule="evenodd" d="M53.4174 97.3884 L53.4174 323.3882 526.4859 323.3882 526.4859 97.3884 53.4174 97.3884 Z"/>
    </clipPath>
  </defs>
  <g transform="matrix(1.0 0.0 -0.0 -1.0 0.0 225.99976678)">
    <g id="" transform="matrix(1.0 0.0 0.0 1.0 -53.4174269 -97.38844733)" clip-path="url(#path0)">
      <g id="Layer_1">
        <g id="">
          <path fill-rule="nonzero" fill="#9E1712" d="M64.6276 248.7968 L64.6276 245.6468 83.6276 237.0968 83.6276 240.7468 68.8276 247.2468 83.6276 253.7468 83.6276 257.3968 64.6276 248.7968 Z"/>
          <path fill-rule="nonzero" fill="#9E1712" d="M86.8276 230.7468 L90.5776 230.7468 103.7276 267.7468 99.8776 267.7468 86.8276 230.7468 Z"/>
          <path fill-rule="nonzero" fill="#9E1712" d="M106.2276 253.7468 L121.0776 247.2468 106.2276 240.7468 106.2276 237.0968 125.2276 245.6468 125.2276 248.7968 106.2276 257.3968 106.2276 253.7468 Z"/>
        </g>
        <g id="">
          <path fill-rule="nonzero" fill="#000000" d="M164.006 239.2193 C163.756 243.0569 161.856 245.9182 158.206 247.0627 162.006 248.5193 164.206 251.9008 164.206 256.3228 164.206 262.5656 159.906 266.5193 153.156 266.5193 L138.056 266.5193 138.056 230.5193 143.056 230.5193 143.056 244.5193 153.056 244.5193 C156.306 244.5193 158.306 241.865 158.456 237.8576 158.506 234.1624 158.656 231.7163 158.906 230.5193 L164.606 230.5193 C164.256 231.6118 164.056 234.317 163.906 238.5309 L164.006 239.2193 Z M143.056 249.5193 L143.056 261.5193 152.606 261.5193 C156.356 261.5193 158.606 259.2504 158.606 255.5697 158.606 251.8891 156.256 249.5193 152.606 249.5193 L143.056 249.5193 Z"/>
          <path fill-rule="nonzero" fill="#000000" d="M170.806 266.5193 L170.806 231.5193 182.156 231.5193 C187.406 231.5193 191.656 233.1378 194.956 236.4254 198.256 239.6624 199.906 243.8604 199.906 249.0699 199.906 254.1783 198.256 258.3763 194.956 261.6638 191.656 264.9008 187.406 266.5193 182.156 266.5193 L170.806 266.5193 Z M175.806 236.5193 L175.806 261.5193 181.656 261.5193 C185.306 261.5193 188.256 260.3647 190.506 258.1057 192.756 255.7964 193.906 252.7844 193.906 249.1197 193.906 245.3547 192.756 242.3426 190.506 240.0334 188.256 237.6739 185.306 236.5193 181.656 236.5193 L175.806 236.5193 Z"/>
        </g>
      </g>
    </g>
  </g>
</svg>