<?xml version="1.0" encoding="UTF-8" standalone="no"?>
<svg
   width="442"
   height="169"
   viewBox="0 0 442 169"
   version="1.1"
   id="svg1058"
   sodipodi:docname="logo_small.svg"
   inkscape:version="1.2.2 (732a01da63, 2022-12-09)"
   xmlns:inkscape="http://www.inkscape.org/namespaces/inkscape"
   xmlns:sodipodi="http://sodipodi.sourceforge.net/DTD/sodipodi-0.dtd"
   xmlns="http://www.w3.org/2000/svg"
   xmlns:svg="http://www.w3.org/2000/svg">
  <defs
     id="defs1062" />
  <sodipodi:namedview
     id="namedview1060"
     pagecolor="#ffffff"
     bordercolor="#000000"
     borderopacity="0.25"
     inkscape:showpageshadow="2"
     inkscape:pageopacity="0.0"
     inkscape:pagecheckerboard="0"
     inkscape:deskcolor="#d1d1d1"
     showgrid="false"
     inkscape:zoom="2.0135747"
     inkscape:cx="214.04719"
     inkscape:cy="92.124719"
     inkscape:window-width="1920"
     inkscape:window-height="991"
     inkscape:window-x="-9"
     inkscape:window-y="-9"
     inkscape:window-maximized="1"
     inkscape:current-layer="svg1058" />
  <path
     d="m 359,85.096 v 36.096 l 13.75,-0.352 c 13.491,-0.345 13.87,-0.417 20.15,-3.815 12.084,-6.539 17.617,-16.779 17.577,-32.525 -0.02,-7.705 -0.423,-9.863 -2.803,-15 C 400.898,54.869 389.486,49 367.816,49 H 359 v 36.096"
     id="path1229"
     style="fill:#d40000" />
  <path
     d="m 261,66.517 v 17.685 l 16.75,-0.358 c 14.559,-0.311 17.184,-0.618 20.069,-2.351 7.431,-4.463 10.215,-15.346 6.002,-23.47 -3.924,-7.569 -6.571,-8.468 -26.071,-8.857 L 261,48.831 v 17.686"
     id="path1227"
     style="fill:#d40000" />
  <path
     d="m 343,85.64 v 50.641 l 21.25,-0.575 c 22.655,-0.613 27.604,-1.443 37.513,-6.291 7.551,-3.694 16.327,-12.704 20.034,-20.567 12.194,-25.864 2.666,-56.543 -21.17,-68.166 -9.251,-4.511 -16.935,-5.645 -38.377,-5.665 L 343,35 v 50.64"
     id="path1225"
     style="fill:#000000" />
  <path
     d="m 245.241,85.25 0.259,50.25 h 7.5 7.5 l 0.272,-19.313 0.272,-19.313 17.876,0.313 c 16.221,0.284 18.08,0.498 20.084,2.313 4.385,3.971 5.835,8.569 6.491,20.584 0.942,17.251 0.135,15.916 9.618,15.916 h 8.075 l -0.554,-4.75 c -0.305,-2.613 -0.841,-9.25 -1.191,-14.75 -0.923,-14.49 -4.399,-21.441 -12.882,-25.758 l -2.938,-1.496 3.014,-1.558 c 4.39,-2.27 9.817,-8.691 11.854,-14.025 1.329,-3.48 1.655,-6.462 1.299,-11.903 -0.539,-8.257 -2.848,-13.599 -7.952,-18.398 C 306.105,36.092 300.309,35 269.442,35 h -24.46 l 0.259,50.25"
     id="path1223"
     style="fill:#000000" />
  <path
     d="m 152.003,36.497 -3.44,3.549 22.96,22.977 22.961,22.977 -22.98,22.996 -22.979,22.995 3.499,3.5 3.5,3.499 26.483,-26.497 26.484,-26.498 -26.524,-26.524 -26.524,-26.523 -3.44,3.549"
     id="path1221"
     style="fill:#d40000" />
  <path
     d="M 33.995,59.505 7.514,86 l 26.481,26.495 26.481,26.495 3.5,-3.499 3.499,-3.5 L 44.496,108.996 21.516,86 44.496,63.004 67.475,40.009 l -3.499,-3.5 -3.5,-3.499 -26.481,26.495"
     id="path1219"
     style="fill:#d40000" />
  <path
     d="m 120.504,11.25 c -0.419,1.208 -33.024,142.369 -34.198,148.06 -0.579,2.806 -0.572,2.81 4.292,2.5 L 95.471,161.5 112.698,87 c 9.475,-40.975 17.244,-75.062 17.265,-75.75 0.024,-0.822 -1.516,-1.25 -4.494,-1.25 -2.728,0 -4.704,0.498 -4.965,1.25"
     id="path1054"
     style="fill:#d40000" />
  <path
     d="M 0 84.502 L 0 169.004 221.250 168.752 L 442.500 168.500 442.756 84.250 L 443.011 -0 221.506 -0 L 0 0 0 84.502 M 0.478 85 C 0.478 131.475, 0.600 150.488, 0.750 127.250 C 0.899 104.013, 0.899 65.988, 0.750 42.750 C 0.600 19.513, 0.478 38.525, 0.478 85 M 120.504 11.250 C 120.085 12.458, 87.480 153.619, 86.306 159.310 C 85.727 162.116, 85.734 162.120, 90.598 161.810 L 95.471 161.500 112.698 87 C 122.173 46.025, 129.942 11.938, 129.963 11.250 C 129.987 10.428, 128.447 10, 125.469 10 C 122.741 10, 120.765 10.498, 120.504 11.250 M 33.995 59.505 L 7.514 86 33.995 112.495 L 60.476 138.990 63.976 135.491 L 67.475 131.991 44.496 108.996 L 21.516 86 44.496 63.004 L 67.475 40.009 63.976 36.509 L 60.476 33.010 33.995 59.505 M 152.003 36.497 L 148.563 40.046 171.523 63.023 L 194.484 86 171.504 108.996 L 148.525 131.991 152.024 135.491 L 155.524 138.990 182.007 112.493 L 208.491 85.995 181.967 59.471 L 155.443 32.948 152.003 36.497 M 245.241 85.250 L 245.500 135.500 253 135.500 L 260.500 135.500 260.772 116.187 L 261.044 96.874 278.920 97.187 C 295.141 97.471, 297 97.685, 299.004 99.500 C 303.389 103.471, 304.839 108.069, 305.495 120.084 C 306.437 137.335, 305.630 136, 315.113 136 L 323.188 136 322.634 131.250 C 322.329 128.637, 321.793 122, 321.443 116.500 C 320.520 102.010, 317.044 95.059, 308.561 90.742 L 305.623 89.246 308.637 87.688 C 313.027 85.418, 318.454 78.997, 320.491 73.663 C 321.820 70.183, 322.146 67.201, 321.790 61.760 C 321.251 53.503, 318.942 48.161, 313.838 43.362 C 306.105 36.092, 300.309 35, 269.442 35 L 244.982 35 245.241 85.250 M 343 85.640 L 343 136.281 364.250 135.706 C 386.905 135.093, 391.854 134.263, 401.763 129.415 C 409.314 125.721, 418.090 116.711, 421.797 108.848 C 433.991 82.984, 424.463 52.305, 400.627 40.682 C 391.376 36.171, 383.692 35.037, 362.250 35.017 L 343 35 343 85.640 M 261 66.517 L 261 84.202 277.750 83.844 C 292.309 83.533, 294.934 83.226, 297.819 81.493 C 305.250 77.030, 308.034 66.147, 303.821 58.023 C 299.897 50.454, 297.250 49.555, 277.750 49.166 L 261 48.831 261 66.517 M 359 85.096 L 359 121.192 372.750 120.840 C 386.241 120.495, 386.620 120.423, 392.900 117.025 C 404.984 110.486, 410.517 100.246, 410.477 84.500 C 410.457 76.795, 410.054 74.637, 407.674 69.500 C 400.898 54.869, 389.486 49, 367.816 49 L 359 49 359 85.096"
     stroke="none"
     fill="#fbfbfa"
     fill-rule="evenodd"
     id="path1056" />
</svg>
